HIERARCHY
ROOT Hips
{
	OFFSET 0.00000 0.00000 0.00000
	CHANNELS 6 Xposition Yposition Zposition Zrotation Yrotation Xrotation 
	JOINT LHipJoint
	{
		OFFSET 0 0 0
		CHANNELS 3 Zrotation Yrotation Xrotation
		JOINT LeftUpLeg
		{
			OFFSET 1.28858 -1.83292 1.03970
			CHANNELS 3 Zrotation Yrotation Xrotation
			JOINT LeftLeg
			{
				OFFSET 2.47846 -6.80952 0.00000
				CHANNELS 3 Zrotation Yrotation Xrotation
				JOINT LeftFoot
				{
					OFFSET 2.75274 -7.56311 0.00000
					CHANNELS 3 Zrotation Yrotation Xrotation
					JOINT LeftToeBase
					{
						OFFSET 0.12848 -0.35301 1.68223
						CHANNELS 3 Zrotation Yrotation Xrotation
						End Site
						{
							OFFSET 0.00000 -0.00000 0.87311
						}
					}
				}
			}
		}
	}
	JOINT RHipJoint
	{
		OFFSET 0 0 0
		CHANNELS 3 Zrotation Yrotation Xrotation
		JOINT RightUpLeg
		{
			OFFSET -1.31183 -1.83292 1.03970
			CHANNELS 3 Zrotation Yrotation Xrotation
			JOINT RightLeg
			{
				OFFSET -2.44740 -6.72417 0.00000
				CHANNELS 3 Zrotation Yrotation Xrotation
				JOINT RightFoot
				{
					OFFSET -2.67343 -7.34519 0.00000
					CHANNELS 3 Zrotation Yrotation Xrotation
					JOINT RightToeBase
					{
						OFFSET -0.16914 -0.46471 1.77626
						CHANNELS 3 Zrotation Yrotation Xrotation
						End Site
						{
							OFFSET -0.00000 -0.00000 0.92777
						}
					}
				}
			}
		}
	}
	JOINT LowerBack
	{
		OFFSET 0 0 0
		CHANNELS 3 Zrotation Yrotation Xrotation
		JOINT Spine
		{
			OFFSET 0.01249 2.14252 0.03842
			CHANNELS 3 Zrotation Yrotation Xrotation
			JOINT Spine1
			{
				OFFSET -0.02957 2.14199 -0.03751
				CHANNELS 3 Zrotation Yrotation Xrotation
				JOINT Neck
				{
					OFFSET 0 0 0
					CHANNELS 3 Zrotation Yrotation Xrotation
					JOINT Neck1
					{
						OFFSET -0.01678 1.65709 -0.05476
						CHANNELS 3 Zrotation Yrotation Xrotation
						JOINT Head
						{
							OFFSET 0.07912 1.58331 -0.11843
							CHANNELS 3 Zrotation Yrotation Xrotation
							End Site
							{
								OFFSET 0.03298 1.73940 -0.04271
							}
						}
					}
				}
				JOINT LeftShoulder
				{
					OFFSET 0 0 0
					CHANNELS 3 Zrotation Yrotation Xrotation
					JOINT LeftArm
					{
						OFFSET 3.39556 1.16496 0.08673
						CHANNELS 3 Zrotation Yrotation Xrotation
						JOINT LeftForeArm
						{
							OFFSET 5.23910 -0.00000 -0.00000
							CHANNELS 3 Zrotation Yrotation Xrotation
							JOINT LeftHand
							{
								OFFSET 3.31467 -0.00000 0.00000
								CHANNELS 3 Zrotation Yrotation Xrotation
								JOINT LeftFingerBase
								{
									OFFSET 0 0 0
									CHANNELS 3 Zrotation Yrotation Xrotation
									JOINT LeftHandIndex1
									{
										OFFSET 0.96590 -0.00000 0.00000
										CHANNELS 3 Zrotation Yrotation Xrotation
										End Site
										{
											OFFSET 0.77873 -0.00000 0.00000
										}
									}
								}
								JOINT LThumb
								{
									OFFSET 0 0 0
									CHANNELS 3 Zrotation Yrotation Xrotation
									End Site
									{
										OFFSET 0.79062 -0.00000 0.79062
									}
								}
							}
						}
					}
				}
				JOINT RightShoulder
				{
					OFFSET 0 0 0
					CHANNELS 3 Zrotation Yrotation Xrotation
					JOINT RightArm
					{
						OFFSET -3.27193 1.31331 0.33940
						CHANNELS 3 Zrotation Yrotation Xrotation
						JOINT RightForeArm
						{
							OFFSET -5.30252 -0.00000 0.00000
							CHANNELS 3 Zrotation Yrotation Xrotation
							JOINT RightHand
							{
								OFFSET -3.67875 -0.00000 0.00000
								CHANNELS 3 Zrotation Yrotation Xrotation
								JOINT RightFingerBase
								{
									OFFSET 0 0 0
									CHANNELS 3 Zrotation Yrotation Xrotation
									JOINT RightHandIndex1
									{
										OFFSET -0.59481 -0.00000 0.00000
										CHANNELS 3 Zrotation Yrotation Xrotation
										End Site
										{
											OFFSET -0.47955 -0.00000 0.00000
										}
									}
								}
								JOINT RThumb
								{
									OFFSET 0 0 0
									CHANNELS 3 Zrotation Yrotation Xrotation
									End Site
									{
										OFFSET -0.48687 -0.00000 0.48687
									}
								}
							}
						}
					}
				}
			}
		}
	}
}
MOTION
Frames: 14
Frame Time: .0083333
10.8019 21.5556 14.6776 0 0 0 0 0 0 -21 0 0 0 0 0 0 0 0 0 0 0 0 0 0 21 0 0 0 0 0 0 0 0 0 0 0 0 0 0 0 0 0 0 0 0 0 0 -16 0 0 21 0 0 11 0 0 0 -8 0 0 0 0 0 0 0 0 0 0 0 0 0 0 0 0 0 0 0 0 8 0 0 0 0 0 0 0 0 0 0 0 0 0 0 0 0 0
10.8019 21.5556 14.6776 3.9405 -1.0326 3.2691 0.0000 0.0000 0.0000 -17.0977 1.5471 2.2028 0.0041 0.4127 1.1340 0.1335 -1.2388 -6.5779 0.2284 3.0763 8.4913 0.0000 0.0000 0.0000 12.0695 10.0592 10.6276 -0.0388 1.2720 -3.4976 -0.9874 -7.9561 -23.2538 -0.4908 -4.4918 12.4646 -3.6127 -2.5803 -5.6182 -0.1637 -3.1995 -0.1546 1.5851 -1.6444 3.1774 -23.4512 -17.9178 12.5997 19.3859 -27.7751 3.9152 7.9363 -14.4329 5.1883 -0.0000 -0.0000 0.0000 -88.6093 3.1158 23.1514 12.8586 -21.0797 -2.4022 -0.0000 0.0000 -1.5091 2.7285 -13.6818 -0.6458 -7.1250 0.0000 -0.0000 -16.7936 16.6283 11.8085 -0.0000 -0.0000 0.0000 84.5370 -5.5148 28.2360 -11.9636 19.7500 -2.0900 0.0000 0.0000 6.2212 -6.5130 -40.2330 4.2173 7.1250 -0.0000 -0.0000 38.9412 -66.4247 -21.4716
10.7903 21.5183 14.6357 3.5989 -0.7899 4.1082 0.0000 0.0000 0.0000 -16.4167 1.8619 0.5894 0.0093 0.6242 1.7154 0.1133 -1.9335 -5.9815 0.0967 2.0059 5.5220 0.0000 0.0000 0.0000 12.5345 10.7651 9.7120 -0.0343 1.1951 -3.2859 -1.0818 -8.1339 -24.1722 -0.5371 -4.6956 13.0424 -3.5093 -2.7450 -6.0017 0.0831 -3.4221 -0.4059 1.7505 -1.7517 3.1539 -14.3043 -17.2179 17.8876 16.9123 -24.6883 -7.5522 7.9770 -13.0307 -1.1236 0.0000 0.0000 0.0000 -88.6604 3.1211 23.4833 13.0839 -21.4101 -2.4838 -0.0000 0.0000 -2.2229 2.5003 -13.2931 -0.5752 -7.1250 0.0000 -0.0000 -16.9768 17.0079 11.8017 0.0000 0.0000 0.0000 84.4509 -5.3071 27.8252 -11.8549 19.5867 -2.0534 0.0000 0.0000 6.6220 -6.2121 -40.3534 4.0315 7.1250 -0.0000 -0.0000 39.4305 -66.4263 -21.7786
10.7740 21.5075 14.5862 3.5278 -0.3248 4.2999 0.0000 0.0000 0.0000 -16.0992 1.7545 -0.1544 0.0163 0.8245 2.2661 0.1047 -2.5623 -5.7612 0.0154 0.8004 2.1999 0.0000 0.0000 0.0000 12.9238 11.6355 9.7536 -0.0332 1.1760 -3.2333 -1.1846 -8.6945 -25.4065 -0.5795 -4.8744 13.5508 -3.7736 -2.9204 -5.6689 0.2087 -3.6582 -0.5128 2.0253 -1.8686 2.8957 -13.2930 -17.8846 15.6364 14.6564 -25.3796 -5.5919 6.8440 -13.1999 -0.5282 -0.0000 -0.0000 0.0000 -88.6236 3.0263 23.7181 13.1186 -21.4607 -2.4965 -0.0000 0.0000 -2.4801 2.4963 -13.1610 -0.5687 -7.1250 0.0000 -0.0000 -16.9905 17.1344 11.7627 -0.0000 -0.0000 0.0000 84.5118 -5.2160 27.2639 -11.7764 19.4684 -2.0271 0.0000 0.0000 6.8747 -6.3747 -40.2721 4.1306 7.1250 -0.0000 -0.0000 39.1410 -66.4134 -21.5864
10.7915 21.5064 14.5866 3.4222 -0.5746 4.2092 0.0000 0.0000 0.0000 -16.1206 1.7515 0.2453 0.0119 0.7048 1.9369 0.1191 -2.3702 -6.1290 0.0713 1.7225 4.7394 0.0000 0.0000 0.0000 12.7711 10.8292 9.3725 -0.0316 1.1467 -3.1526 -1.1774 -7.8497 -24.7317 -0.4834 -4.4585 12.3702 -3.4893 -2.8210 -5.7427 0.1763 -3.5392 -0.4643 1.8392 -1.8072 2.9601 -13.5190 -18.1127 14.3645 13.8621 -25.7381 -3.8554 6.3765 -13.3106 0.1480 -0.0000 -0.0000 0.0000 -88.6131 2.9949 23.4977 13.0067 -21.2971 -2.4557 -0.0000 0.0000 -1.9149 2.5043 -13.3959 -0.5805 -7.1250 0.0000 -0.0000 -16.9657 16.9094 11.8317 -0.0000 -0.0000 0.0000 84.5560 -5.2670 26.8940 -11.7258 19.3921 -2.0103 0.0000 0.0000 7.0039 -6.6101 -40.2497 4.2820 7.1250 -0.0000 -0.0000 38.8695 -66.4661 -21.4628
10.7979 21.4985 14.5673 3.2544 -0.4984 4.2996 0.0000 0.0000 0.0000 -15.9374 1.7394 0.0936 0.0122 0.7118 1.9562 0.1201 -2.5241 -6.1583 0.0997 2.0367 5.6070 0.0000 0.0000 0.0000 12.8585 10.4802 8.9931 -0.0294 1.1077 -3.0451 -1.2068 -7.4762 -24.7005 -0.4289 -4.2030 11.6484 -3.3140 -2.8591 -5.7343 0.2396 -3.6038 -0.4836 1.8019 -1.8370 2.9325 -12.4782 -18.1734 14.2036 12.9664 -25.6128 -4.3059 6.0707 -13.2097 -0.2270 0.0000 -0.0000 0.0000 -88.6117 2.9419 23.4566 12.9926 -21.2763 -2.4506 -0.0000 0.0000 -1.6786 2.4226 -13.3887 -0.5613 -7.1250 0.0000 -0.0000 -17.0206 16.9189 11.8700 0.0000 -0.0000 0.0000 84.5523 -5.2293 26.5745 -11.6780 19.3199 -1.9945 0.0000 0.0000 7.1323 -6.7745 -40.2543 4.3895 7.1250 -0.0000 -0.0000 38.7108 -66.5183 -21.4089
10.8075 21.4934 14.5512 3.0997 -0.4282 4.3084 0.0000 0.0000 0.0000 -15.8114 1.7202 0.0986 0.0115 0.6910 1.8990 0.1217 -2.6332 -6.2033 0.1558 2.5432 7.0093 0.0000 0.0000 0.0000 12.8904 9.9130 8.6351 -0.0271 1.0633 -2.9229 -1.2254 -7.0006 -24.5225 -0.3519 -3.8112 10.5461 -3.1109 -2.8945 -5.7184 0.2854 -3.6655 -0.4577 1.7305 -1.8659 2.9441 -12.2970 -18.2262 13.7941 12.5278 -25.6464 -3.9432 5.8707 -13.2001 -0.1344 -0.0000 0.0000 0.0000 -88.6057 2.8552 23.3810 12.9560 -21.2227 -2.4373 -0.0000 0.0000 -1.3390 2.3195 -13.3972 -0.5377 -7.1250 0.0000 -0.0000 -17.0885 16.9139 11.9239 -0.0000 0.0000 0.0000 84.5372 -5.1773 26.3390 -11.6413 19.2645 -1.9823 0.0000 0.0000 7.1793 -7.0062 -40.2469 4.5397 7.1250 -0.0000 -0.0000 38.4652 -66.5814 -21.3098
10.8183 21.4884 14.5362 2.9642 -0.3727 4.3008 0.0000 0.0000 0.0000 -15.7245 1.7189 0.1370 0.0104 0.6577 1.8074 0.1229 -2.7322 -6.2402 0.2224 3.0357 8.3782 0.0000 0.0000 0.0000 12.8774 9.2661 8.2577 -0.0243 1.0062 -2.7660 -1.2437 -6.4571 -24.3087 -0.2698 -3.3415 9.2311 -2.9098 -2.9270 -5.7340 0.3198 -3.7217 -0.4041 1.6463 -1.8928 3.0007 -12.2400 -18.2241 13.6337 12.3653 -25.6303 -3.8094 5.7987 -13.1822 -0.1013 0.0000 -0.0000 0.0000 -88.5856 2.7340 23.3387 12.9144 -21.1616 -2.4223 -0.0000 0.0000 -1.0173 2.1963 -13.3994 -0.5092 -7.1250 0.0000 -0.0000 -17.1702 16.9157 11.9859 0.0000 -0.0000 0.0000 84.5191 -5.0927 26.1551 -11.6070 19.2126 -1.9710 0.0000 0.0000 7.1776 -7.2641 -40.2145 4.7048 7.1250 -0.0000 -0.0000 38.1533 -66.6334 -21.1597
10.8275 21.4830 14.5193 2.8389 -0.3234 4.2977 0.0000 0.0000 0.0000 -15.6340 1.7153 0.1443 0.0095 0.6309 1.7336 0.1243 -2.8446 -6.2812 0.2727 3.3592 9.2805 0.0000 0.0000 0.0000 12.8806 8.7430 7.9084 -0.0211 0.9389 -2.5807 -1.2728 -5.9488 -24.2177 -0.2024 -2.8972 7.9926 -2.7370 -2.9552 -5.7460 0.3494 -3.7704 -0.3448 1.5736 -1.9162 3.0620 -12.2428 -18.2034 13.6228 12.3727 -25.6008 -3.8206 5.8023 -13.1674 -0.1052 0.0000 0.0000 0.0000 -88.5381 2.5924 23.3771 12.8739 -21.1022 -2.4077 -0.0000 0.0000 -0.7884 2.0771 -13.3892 -0.4812 -7.1250 0.0000 -0.0000 -17.2503 16.9291 12.0421 0.0000 0.0000 0.0000 84.5189 -4.9900 25.9748 -11.5748 19.1639 -1.9605 0.0000 0.0000 7.1579 -7.5254 -40.1329 4.8670 7.1250 -0.0000 -0.0000 37.7615 -66.6488 -20.9290
10.8343 21.4767 14.5004 2.6980 -0.2954 4.3000 0.0000 0.0000 0.0000 -15.4951 1.7053 0.1223 0.0090 0.6139 1.6870 0.1270 -2.9767 -6.3577 0.2941 3.4871 9.6380 0.0000 0.0000 0.0000 12.9513 8.4380 7.6233 -0.0181 0.8683 -2.3866 -1.3165 -5.5087 -24.2946 -0.1570 -2.5532 7.0371 -2.5767 -2.9699 -5.7391 0.3810 -3.8011 -0.2924 1.5128 -1.9305 3.1056 -12.2260 -18.1867 13.6036 12.4072 -25.5724 -3.8301 5.8099 -13.1544 -0.1060 -0.0000 -0.0000 0.0000 -88.4596 2.4512 23.5125 12.8318 -21.0402 -2.3926 -0.0000 0.0000 -0.6669 1.9931 -13.3709 -0.4611 -7.1250 0.0000 -0.0000 -17.3076 16.9491 12.0781 -0.0000 -0.0000 0.0000 84.5463 -4.8967 25.7742 -11.5507 19.1274 -1.9526 0.0000 0.0000 7.1444 -7.7523 -40.0148 5.0025 7.1250 -0.0000 -0.0000 37.3484 -66.6258 -20.6538
10.8390 21.4695 14.4820 2.5469 -0.3322 4.3103 0.0000 0.0000 0.0000 -15.3157 1.6890 0.1070 0.0084 0.5935 1.6310 0.1332 -3.0962 -6.5171 0.2949 3.4919 9.6515 0.0000 0.0000 0.0000 13.0784 8.3737 7.4121 -0.0154 0.8011 -2.2018 -1.3722 -5.1348 -24.5110 -0.1300 -2.3240 6.4019 -2.4324 -2.9582 -5.7346 0.4138 -3.7957 -0.2504 1.4657 -1.9267 3.1389 -12.2026 -18.1723 13.5982 12.4682 -25.5464 -3.8479 5.8256 -13.1443 -0.1083 0.0000 -0.0000 0.0000 -88.3609 2.3219 23.7223 12.7793 -20.9631 -2.3738 -0.0000 0.0000 -0.6232 1.9601 -13.3666 -0.4533 -7.1250 0.0000 -0.0000 -17.3299 16.9543 12.0932 0.0000 -0.0000 0.0000 84.5950 -4.8308 25.5550 -11.5416 19.1137 -1.9496 0.0000 0.0000 7.1449 -7.9201 -39.8922 5.0986 7.1250 -0.0000 -0.0000 36.9890 -66.5809 -20.3950
10.8421 21.4619 14.4639 2.3742 -0.3876 4.3228 0.0000 0.0000 0.0000 -15.0899 1.6683 0.0977 0.0079 0.5730 1.5745 0.1418 -3.2262 -6.7272 0.2931 3.4813 9.6217 0.0000 0.0000 0.0000 13.2623 8.4494 7.2687 -0.0135 0.7491 -2.0588 -1.4330 -4.8320 -24.8083 -0.1152 -2.1880 6.0256 -2.2854 -2.9358 -5.7044 0.4537 -3.7774 -0.2276 1.4275 -1.9160 3.1379 -12.1896 -18.1582 13.6152 12.5453 -25.5245 -3.8648 5.8484 -13.1374 -0.1098 -0.0000 0.0000 0.0000 -88.2603 2.2158 23.9502 12.7139 -20.8666 -2.3504 -0.0000 0.0000 -0.5925 1.9728 -13.3758 -0.4566 -7.1250 0.0000 -0.0000 -17.3207 16.9451 12.0898 -0.0000 0.0000 0.0000 84.6531 -4.8059 25.3355 -11.5529 19.1307 -1.9533 0.0000 0.0000 7.1514 -8.0041 -39.7836 5.1415 7.1250 -0.0000 -0.0000 36.7385 -66.5220 -20.1926
10.8447 21.4541 14.4469 2.1868 -0.4421 4.3335 0.0000 0.0000 0.0000 -14.8368 1.6580 0.0986 0.0073 0.5519 1.5166 0.1517 -3.3820 -6.9634 0.2922 3.4761 9.6071 0.0000 0.0000 0.0000 13.4769 8.5717 7.1755 -0.0122 0.7142 -1.9628 -1.4916 -4.6033 -25.1272 -0.1019 -2.0580 5.6659 -2.1312 -2.9152 -5.6578 0.5011 -3.7626 -0.2177 1.3939 -1.9067 3.1146 -12.1959 -18.1399 13.6318 12.6168 -25.5018 -3.8533 5.8699 -13.1298 -0.1012 -0.0000 -0.0000 0.0000 -88.1708 2.1317 24.1591 12.6421 -20.7606 -2.3249 -0.0000 0.0000 -0.5397 2.0122 -13.3665 -0.4654 -7.1250 0.0000 -0.0000 -17.2953 16.9527 12.0673 -0.0000 -0.0000 0.0000 84.7050 -4.8188 25.1704 -11.5903 19.1874 -1.9656 0.0000 0.0000 7.1286 -8.0104 -39.7204 5.1388 7.1250 -0.0000 -0.0000 36.6368 -66.4748 -20.0916
10.8477 21.4464 14.4307 2.0230 -0.4828 4.3448 0.0000 0.0000 0.0000 -14.6136 1.6669 0.0967 0.0068 0.5333 1.4654 0.1619 -3.5768 -7.2036 0.2863 3.4413 9.5099 0.0000 0.0000 0.0000 13.6536 8.6448 7.0860 -0.0114 0.6883 -1.8914 -1.5432 -4.4140 -25.4120 -0.0822 -1.8493 5.0892 -2.0028 -2.9101 -5.6091 0.5483 -3.7666 -0.2147 1.3730 -1.9071 3.0854 -12.2023 -18.1189 13.6179 12.6354 -25.4768 -3.7927 5.8714 -13.1182 -0.0808 0.0000 -0.0000 0.0000 -88.0956 2.0587 24.3362 12.5664 -20.6487 -2.2981 -0.0000 0.0000 -0.4775 2.0533 -13.3351 -0.4738 -7.1250 0.0000 -0.0000 -17.2707 16.9815 12.0369 0.0000 -0.0000 0.0000 84.7367 -4.8569 25.1149 -11.6559 19.2866 -1.9872 0.0000 0.0000 7.0290 -7.9990 -39.7147 5.1308 7.1250 -0.0000 -0.0000 36.6397 -66.4670 -20.0871
